<svg xmlns="http://www.w3.org/2000/svg" width="13.364" height="15.273" viewBox="0 0 13.364 15.273">
  <path id="Icon_fa-solid-calendar-days" data-name="Icon fa-solid-calendar-days" d="M3.818,0a.954.954,0,0,1,.955.955v.955H8.591V.955a.955.955,0,0,1,1.909,0v.955h1.432a1.432,1.432,0,0,1,1.432,1.432V4.773H0V3.341A1.432,1.432,0,0,1,1.432,1.909H2.864V.955A.954.954,0,0,1,3.818,0ZM0,5.727H13.364v8.114a1.432,1.432,0,0,1-1.432,1.432H1.432A1.432,1.432,0,0,1,0,13.841ZM1.909,8.114v.955a.479.479,0,0,0,.477.477h.955a.479.479,0,0,0,.477-.477V8.114a.479.479,0,0,0-.477-.477H2.386A.479.479,0,0,0,1.909,8.114Zm3.818,0v.955a.479.479,0,0,0,.477.477h.955a.479.479,0,0,0,.477-.477V8.114a.479.479,0,0,0-.477-.477H6.2A.479.479,0,0,0,5.727,8.114Zm4.3-.477a.479.479,0,0,0-.477.477v.955a.479.479,0,0,0,.477.477h.955a.479.479,0,0,0,.477-.477V8.114a.479.479,0,0,0-.477-.477Zm-8.114,4.3v.955a.479.479,0,0,0,.477.477h.955a.479.479,0,0,0,.477-.477v-.955a.479.479,0,0,0-.477-.477H2.386A.479.479,0,0,0,1.909,11.932Zm4.3-.477a.479.479,0,0,0-.477.477v.955a.479.479,0,0,0,.477.477h.955a.479.479,0,0,0,.477-.477v-.955a.479.479,0,0,0-.477-.477Zm3.341.477v.955a.479.479,0,0,0,.477.477h.955a.479.479,0,0,0,.477-.477v-.955a.479.479,0,0,0-.477-.477h-.955A.479.479,0,0,0,9.546,11.932Z" fill="#2f8bc3"/>
</svg>
